{"title":"Mahouka Koukou no Rettousei 25 (Fin) Vostfr [1080p] ","uid":11073384,"size":567473203,"categoryP":"video","categoryS":"hd___tv_shows","magnet":"?xt=urn:btih:726bba9a0455758d767b625d32f766f6a51fee1b&amp;dn=Mahouka+Koukou+no+Rettousei+25+%28Fin%29+Vostfr+%5B1080p%5D+&amp;tr=udp%3A%2F%2Ftracker.openbittorrent.com%3A80&amp;tr=udp%3A%2F%2Fopen.demonii.com%3A1337&amp;tr=udp%3A%2F%2Ftracker.coppersurfer.tk%3A6969&amp;tr=udp%3A%2F%2Fexodus.desync.com%3A6969","seeders":0,"leechers":0,"uploader":"klaxx59","files":-1,"time":1411261041,"description":"General\n\nFormat                                   : MPEG-4\nFormat profile                           : Base Media\nCodec ID                                 : isom\nFile size                                : 541 MiB\nDuration                                 : 23mn 40s\nOverall bit rate mode                    : Variable\nOverall bit rate                         : 3 197 Kbps\nContentType                              : Movie\nEncoded date                             : UTC 2014-09-21 01:57:20\nTagged date                              : UTC 2014-09-21 01:57:30\nWriting application                      : MkvToMp4 [www.mkvtomp4.ru] version: 0.224 (x64)\n\nVideo\nID                                       : 1\nFormat                                   : AVC\nFormat/Info                              : Advanced Video Codec\nFormat profile                           : &lt;a class=&quot;__cf_email__&quot; href=&quot;/cdn-cgi/l/email-protection&quot; data-cfemail=&quot;0a42636d624a463e243a&quot;&gt;[email&amp;#160;protected]&lt;/a&gt;&lt;script data-cfhash='f9e31' type=&quot;text/javascript&quot;&gt;\n/* &lt;![CDATA[ */!function(){try{var t=&quot;currentScript&quot;in document?document.currentScript:function(){for(var t=document.getElementsByTagName(&quot;script&quot;),e=t.length;e--;)if(t[e].getAttribute(&quot;data-cfhash&quot;))return t[e]}();if(t&amp;&amp;t.previousSibling){var e,r,n,i,c=t.previousSibling,a=c.getAttribute(&quot;data-cfemail&quot;);if(a){for(e=&quot;&quot;,r=parseInt(a.substr(0,2),16),n=2;a.length-n;n+=2)i=parseInt(a.substr(n,2),16)^r,e+=String.fromCharCode(i);e=document.createTextNode(e),c.parentNode.replaceChild(e,c)}t.parentNode.removeChild(t);}}catch(u){}}()/* ]]&gt; */&lt;/script&gt;\nFormat settings, CABAC                   : Yes\nFormat settings, ReFrames                : 4 frames\nCodec ID                                 : avc1\nCodec ID/Info                            : Advanced Video Coding\nDuration                                 : 23mn 40s\nBit rate                                 : 3 072 Kbps\nMaximum bit rate                         : 12.8 Mbps\nWidth                                    : 1 920 pixels\nHeight                                   : 1 080 pixels\nDisplay aspect ratio                     : 16:9\nFrame rate mode                          : Constant\nFrame rate                               : 23.976 fps\nColor space                              : YUV\nChroma subsampling                       : 4:2:0\nBit depth                                : 8 bits\nScan type                                : Progressive\nBits/(Pixel*Frame)                       : 0.062\nStream size                              : 518 MiB (96%)\nWriting library                          : x264 core 120 r2120 0c7dab9\nEncoding settings                        : cabac=1 / ref=4 / deblock=1:1:1 / analyse=0x3:0x113 / me=umh / subme=8 / psy=1 / psy_rd=0.40:0.00 / mixed_ref=1 / me_range=16 / chroma_me=1 / trellis=1 / 8x8dct=1 / cqm=0 / deadzone=21,11 / fast_pskip=1 / chroma_qp_offset=-2 / threads=8 / sliced_threads=0 / nr=0 / decimate=1 / interlaced=0 / bluray_compat=0 / constrained_intra=0 / bframes=3 / b_pyramid=2 / b_adapt=2 / b_bias=0 / direct=3 / weightb=1 / open_gop=0 / weightp=2 / keyint=250 / keyint_min=23 / scenecut=40 / intra_refresh=0 / rc_lookahead=50 / rc=2pass / mbtree=1 / bitrate=3072 / ratetol=1.0 / qcomp=0.60 / qpmin=0 / qpmax=69 / qpstep=4 / cplxblur=20.0 / qblur=0.5 / vbv_maxrate=6144 / vbv_bufsize=15360 / nal_hrd=none / ip_ratio=1.40 / aq=1:0.60\nLanguage                                 : English\nEncoded date                             : UTC 2014-09-21 01:57:20\nTagged date                              : UTC 2014-09-21 01:57:24\n\nAudio\nID                                       : 2\nFormat                                   : AAC\nFormat/Info                              : Advanced Audio Codec\nFormat profile                           : LC\nCodec ID                                 : 40\nDuration                                 : 23mn 40s\nBit rate mode                            : Variable\nBit rate                                 : 128 Kbps\nMaximum bit rate                         : 140 Kbps\nChannel(s)                               : 2 channels\nChannel positions                        : Front: L R\nSampling rate                            : 44.1 KHz\nCompression mode                         : Lossy\nStream size                              : 21.7 MiB (4%)\nLanguage                                 : English\nEncoded date                             : UTC 2014-09-21 01:57:24\nTagged date                              : UTC 2014-09-21 01:57:24\n\nText\nID                                       : 3\nFormat                                   : Timed Text\nMuxing mode                              : sbtl\nCodec ID                                 : tx3g\nDuration                                 : 21mn 49s\nBit rate mode                            : Variable\nBit rate                                 : 43 bps\nStream size                              : 6.81 KiB (0%)\nLanguage                                 : French\nEncoded date                             : UTC 2014-09-21 01:57:24\nTagged date                              : UTC 2014-09-21 01:57:24\n\n","torrent":{"xt":"urn:btih:726bba9a0455758d767b625d32f766f6a51fee1b","amp;dn":"Mahouka+Koukou+no+Rettousei+25+%28Fin%29+Vostfr+%5B1080p%5D+","amp;tr":["udp%3A%2F%2Ftracker.openbittorrent.com%3A80","udp%3A%2F%2Fopen.demonii.com%3A1337","udp%3A%2F%2Ftracker.coppersurfer.tk%3A6969","udp%3A%2F%2Fexodus.desync.com%3A6969"],"infoHash":"726bba9a0455758d767b625d32f766f6a51fee1b","infoHashBuffer":{"type":"Buffer","data":[114,107,186,154,4,85,117,141,118,123,98,93,50,247,102,246,165,31,238,27]},"announce":[],"urlList":[]}}